<svg width="23" height="15" viewBox="0 0 23 15" fill="none" xmlns="http://www.w3.org/2000/svg">
<path d="M6.443 0.350006C7.082 0.350006 7.673 0.400006 8.213 0.548006C8.70301 0.638051 9.17075 0.822837 9.59 1.09201C9.984 1.33901 10.279 1.68601 10.475 2.13101C10.672 2.57601 10.77 3.12101 10.77 3.71401C10.77 4.40701 10.623 5.00001 10.279 5.44501C9.984 5.89101 9.492 6.28601 8.902 6.58301C9.738 6.83101 10.377 7.27601 10.77 7.86901C11.164 8.46301 11.41 9.20501 11.41 10.046C11.41 10.739 11.262 11.332 11.016 11.827C10.77 12.322 10.377 12.767 9.934 13.064C9.45279 13.3824 8.92084 13.6164 8.361 13.756C7.771 13.905 7.181 14.004 6.591 14.004H0V0.350006H6.443ZM6.049 5.89001C6.59 5.89001 7.033 5.74201 7.377 5.49501C7.721 5.24801 7.869 4.80201 7.869 4.25801C7.869 3.96101 7.819 3.66401 7.721 3.46701C7.623 3.26901 7.475 3.12001 7.279 2.97201C7.082 2.87301 6.885 2.77401 6.639 2.72501C6.393 2.67501 6.148 2.67501 5.852 2.67501H3V5.89101H6.05L6.049 5.89001ZM6.197 11.728C6.492 11.728 6.787 11.678 7.033 11.629C7.28137 11.5818 7.51628 11.4804 7.721 11.332C7.92138 11.1872 8.08903 11.0019 8.213 10.788C8.311 10.541 8.41 10.244 8.41 9.89801C8.41 9.20501 8.213 8.71001 7.82 8.36401C7.426 8.06701 6.885 7.91901 6.246 7.91901H3V11.729H6.197V11.728ZM15.689 11.678C16.082 12.074 16.672 12.272 17.459 12.272C18 12.272 18.492 12.124 18.885 11.877C19.279 11.58 19.525 11.283 19.623 10.986H22.033C21.639 12.173 21.049 13.014 20.263 13.558C19.475 14.053 18.541 14.35 17.41 14.35C16.6864 14.3522 15.9688 14.2178 15.295 13.954C14.6887 13.7266 14.148 13.3528 13.721 12.866C13.2643 12.4106 12.9267 11.8498 12.738 11.233C12.492 10.59 12.393 9.89801 12.393 9.10601C12.393 8.36401 12.492 7.67201 12.738 7.02801C12.9745 6.40809 13.3245 5.83769 13.77 5.34601C14.213 4.90101 14.754 4.50601 15.344 4.25801C16.0007 3.99407 16.7022 3.8596 17.41 3.86201C18.246 3.86201 18.984 4.01101 19.623 4.35701C20.263 4.70301 20.754 5.09901 21.148 5.69301C21.5499 6.26354 21.8494 6.89971 22.033 7.57301C22.131 8.26501 22.18 8.95801 22.131 9.74901H15C15 10.541 15.295 11.283 15.689 11.679V11.678ZM18.787 6.48401C18.443 6.13801 17.902 5.94001 17.262 5.94001C16.82 5.94001 16.475 6.03901 16.18 6.18701C15.885 6.33601 15.689 6.53401 15.492 6.73201C15.311 6.92326 15.1912 7.16423 15.148 7.42401C15.098 7.67201 15.049 7.86901 15.049 8.06701H19.475C19.377 7.32501 19.131 6.83101 18.787 6.48401ZM14.459 1.29001H19.967V2.62601H14.46V1.29001H14.459Z" fill="white"/>
</svg>
