<svg width="16" height="16" viewBox="0 0 16 16" fill="none" xmlns="http://www.w3.org/2000/svg">
<g clip-path="url(#clip0_472_363)">
<path d="M8.00001 14.6667C4.31801 14.6667 1.33334 11.682 1.33334 8.00001C1.33334 4.31801 4.31801 1.33334 8.00001 1.33334C11.682 1.33334 14.6667 4.31801 14.6667 8.00001C14.6667 11.682 11.682 14.6667 8.00001 14.6667ZM8.00001 13.3333C9.4145 13.3333 10.7711 12.7714 11.7712 11.7712C12.7714 10.7711 13.3333 9.4145 13.3333 8.00001C13.3333 6.58552 12.7714 5.22897 11.7712 4.22877C10.7711 3.22858 9.4145 2.66668 8.00001 2.66668C6.58552 2.66668 5.22897 3.22858 4.22877 4.22877C3.22858 5.22897 2.66668 6.58552 2.66668 8.00001C2.66668 9.4145 3.22858 10.7711 4.22877 11.7712C5.22897 12.7714 6.58552 13.3333 8.00001 13.3333ZM8.66668 8.00001H11.3333V9.33334H7.33334V4.66668H8.66668V8.00001Z" fill="#393939"/>
</g>
<defs>
<clipPath id="clip0_472_363">
<rect width="16" height="16" fill="white"/>
</clipPath>
</defs>
</svg>
