<svg width="16" height="16" viewBox="0 0 16 16" fill="none" xmlns="http://www.w3.org/2000/svg">
<g clip-path="url(#clip0_469_368)">
<path d="M4.05535 8.66666C3.95898 8.0933 3.98876 7.50584 4.1426 6.94517C4.29645 6.3845 4.57067 5.8641 4.94616 5.42023C5.32165 4.97636 5.7894 4.61967 6.31681 4.37502C6.84422 4.13037 7.41863 4.00363 8.00002 4.00363C8.58141 4.00363 9.15582 4.13037 9.68323 4.37502C10.2106 4.61967 10.6784 4.97636 11.0539 5.42023C11.4294 5.8641 11.7036 6.3845 11.8574 6.94517C12.0113 7.50584 12.0411 8.0933 11.9447 8.66666H4.05535ZM1.33335 9.99999H8.00002V11.3333H1.33335V9.99999ZM9.33335 9.99999H14.6667V11.3333H9.33335V9.99999ZM10.6667 12.6667H13.3334V14H10.6667V12.6667ZM2.66669 12.6667H9.33335V14H2.66669V12.6667ZM7.33335 0.666656H8.66669V2.66666H7.33335V0.666656ZM2.34335 3.28599L3.28602 2.34332L4.70002 3.75732L3.75735 4.69999L2.34335 3.28666V3.28599ZM12.7134 2.34332L13.656 3.28599L12.242 4.69999L11.2994 3.75732L12.7134 2.34332V2.34332ZM15.3334 7.33332V8.66666H13.3334V7.33332H15.3334ZM2.66669 7.33332V8.66666H0.666687V7.33332H2.66669Z" fill="#393939"/>
</g>
<defs>
<clipPath id="clip0_469_368">
<rect width="16" height="16" fill="white"/>
</clipPath>
</defs>
</svg>
