<svg width="250" height="63" viewBox="0 0 250 63" fill="none" xmlns="http://www.w3.org/2000/svg">
<g clip-path="url(#clip0_472_2193)">
<path d="M2.62305 40.5111V18.8156H0V13.193H2.62305V10.5276C2.62305 4.75007 6.13456 0 13.4991 0H19.685V6.36122H13.5565C10.0994 6.36122 9.10514 8.4846 9.10514 11.5342V13.196H19.685V18.8186H9.10514V40.5111H2.62305Z" fill="white"/>
<path d="M31.528 13.2227V40.511H25.046V13.2227H31.528Z" fill="white"/>
<path d="M63.6876 40.5109V24.73C63.6876 19.7149 60.2879 18.9227 57.2327 18.8453L47.0548 18.8184V40.5109H40.5485V13.1958H59.3209C66.6854 13.1958 70.1939 17.9459 70.1939 23.7532V40.5109H63.6876Z" fill="white"/>
<path d="M85.3218 0V13.196H93.061V18.8186H85.3218V40.5111H78.8427V18.8186H76.2197V13.196H78.8427V1.95363L85.3218 0Z" fill="white"/>
<path d="M124.371 34.519L127.396 40.511H108.757C101.365 40.511 97.8296 35.7341 97.8296 29.9268V23.777C97.8296 17.9697 101.365 13.1929 108.757 13.1929H118.397C125.816 13.1929 129.324 17.9697 129.324 23.777V25.6503C129.324 28.5539 127.826 29.8464 124.985 29.8464H104.39C104.871 34.0961 108.488 34.5161 111.513 34.5161H124.368L124.371 34.519ZM122.791 23.8574C122.31 19.6345 118.693 19.1878 115.668 19.1878H111.516C108.491 19.1878 104.874 19.6375 104.393 23.8574H122.791Z" fill="white"/>
<path d="M149.813 34.519C153.427 34.519 158.169 34.519 161.81 34.519L164.863 40.511H147.054C139.662 40.511 136.127 35.7341 136.127 29.9268V23.777C136.127 17.9697 139.662 13.1929 147.054 13.1929H164.863L161.81 19.1848H149.813C146.574 19.1848 142.636 19.6851 142.636 24.8581V28.8428C142.636 34.0157 146.574 34.5161 149.813 34.5161V34.519Z" fill="white"/>
<path d="M194.345 40.5111V24.7301C194.345 19.715 190.945 18.9228 187.863 18.8454L178.141 18.8186V40.5111H171.635V1.98043L178.141 0V13.196H190.084C197.367 13.2496 200.824 17.9996 200.824 23.7533V40.5111H194.345Z" fill="white"/>
<path d="M237.586 13.0918L220.817 37.6522L237.979 62.2364H250L233.002 37.6641L250 13.0918H237.586Z" fill="url(#paint0_linear_472_2193)"/>
<path d="M219.388 39.6265L203.701 62.2362H216.278L225.607 48.5488L219.388 39.6265Z" fill="url(#paint1_linear_472_2193)"/>
<g style="mix-blend-mode:overlay" opacity="0.4">
<path d="M237.586 13.0918L220.817 37.6522L250 13.0918H237.586Z" fill="#1C1C1C"/>
</g>
<path d="M219.388 35.7015L203.701 13.0918H216.278L225.607 26.7791L219.388 35.7015Z" fill="white"/>
<path d="M126.182 46.2559L137.762 58.7699V45.8122H140.043V60.6222C140.055 61.5127 139.436 62.2513 138.653 62.2393C138.297 62.2393 137.928 62.0755 137.62 61.7837L126.04 49.2816V62.2393H123.758V47.4293C123.734 46.5388 124.365 45.8002 125.136 45.8122C125.505 45.8122 125.873 45.976 126.182 46.2559Z" fill="white"/>
<path d="M143.343 62.2363V45.8091H157.942L156.885 47.8938H145.625V60.1486H157.477V62.2333H143.34L143.343 62.2363ZM156.054 55.065H144.274L145.332 52.9803H156.054V55.065Z" fill="white"/>
<path d="M165.848 60.8187L160.629 45.8091H163.113L167.262 58.2635L170.674 46.7114C170.852 46.092 171.091 45.8091 171.529 45.8091C171.967 45.8091 172.194 46.089 172.372 46.7114L175.796 58.2635L179.945 45.8091H182.417L177.21 60.8187C176.866 61.7687 176.663 62.2363 175.938 62.2363C175.047 62.2363 174.856 61.5692 174.593 60.7949L171.526 50.7527L168.459 60.7949C168.196 61.5692 167.993 62.2363 167.114 62.2363C166.389 62.2363 166.174 61.7687 165.842 60.8187H165.848Z" fill="white"/>
<path d="M195.629 55.068H189.41C186.711 55.068 184.726 53.5789 184.726 50.3447C184.726 47.1105 186.877 45.8091 189.41 45.8091H200.664L199.594 47.9057C199.141 47.8818 190.815 47.9057 190.422 47.9057C188.307 47.9057 187.068 48.4566 187.068 50.306C187.068 51.7236 187.696 52.9416 189.718 52.9774H196.128C198.826 52.9774 200.824 54.4664 200.824 57.7006C200.824 60.9348 198.672 62.2363 196.128 62.2363H184.965L186.034 60.1397C186.488 60.1635 194.333 60.1397 194.738 60.1397C196.427 60.1397 198.53 60.3273 198.53 57.6083C198.53 55.3807 196.805 55.0888 195.629 55.065V55.068Z" fill="white"/>
<path d="M28.2371 11.025C30.2582 11.025 31.8967 9.41029 31.8967 7.41849C31.8967 5.42669 30.2582 3.81201 28.2371 3.81201C26.216 3.81201 24.5775 5.42669 24.5775 7.41849C24.5775 9.41029 26.216 11.025 28.2371 11.025Z" fill="url(#paint2_linear_472_2193)"/>
</g>
<defs>
<linearGradient id="paint0_linear_472_2193" x1="220.817" y1="37.6641" x2="250" y2="37.6641" gradientUnits="userSpaceOnUse">
<stop stop-color="#FFA800"/>
<stop offset="1" stop-color="#FFCD00"/>
</linearGradient>
<linearGradient id="paint1_linear_472_2193" x1="224" y1="47.9999" x2="203" y2="59.4999" gradientUnits="userSpaceOnUse">
<stop stop-color="#FFA800"/>
<stop offset="1" stop-color="#FFCD00"/>
</linearGradient>
<linearGradient id="paint2_linear_472_2193" x1="25" y1="10" x2="31" y2="4.00005" gradientUnits="userSpaceOnUse">
<stop stop-color="#FFA800"/>
<stop offset="1" stop-color="#FFCD00"/>
</linearGradient>
<clipPath id="clip0_472_2193">
<rect width="250" height="62.2363" fill="white"/>
</clipPath>
</defs>
</svg>
