<svg width="250" height="63" viewBox="0 0 250 63" fill="none" xmlns="http://www.w3.org/2000/svg">
<g clip-path="url(#clip0_364_135)">
<path d="M2.62305 40.5111V18.8156H0V13.193H2.62305V10.5276C2.62305 4.75007 6.13456 0 13.4991 0H19.685V6.36122H13.5565C10.0994 6.36122 9.10514 8.4846 9.10514 11.5342V13.196H19.685V18.8186H9.10514V40.5111H2.62305Z" fill="#353535"/>
<path d="M31.528 13.2227V40.5111H25.046V13.2227H31.528Z" fill="#353535"/>
<path d="M63.6876 40.5111V24.7301C63.6876 19.715 60.2879 18.9228 57.2327 18.8454L47.0548 18.8186V40.5111H40.5485V13.196H59.3209C66.6854 13.196 70.1939 17.946 70.1939 23.7533V40.5111H63.6876Z" fill="#353535"/>
<path d="M85.3218 0V13.196H93.061V18.8186H85.3218V40.5111H78.8427V18.8186H76.2197V13.196H78.8427V1.95363L85.3218 0Z" fill="#353535"/>
<path d="M124.371 34.5192L127.396 40.5111H108.757C101.365 40.5111 97.8296 35.7342 97.8296 29.9269V23.7772C97.8296 17.9699 101.365 13.193 108.757 13.193H118.397C125.816 13.193 129.324 17.9699 129.324 23.7772V25.6504C129.324 28.554 127.826 29.8465 124.985 29.8465H104.39C104.871 34.0963 108.488 34.5162 111.513 34.5162H124.368L124.371 34.5192ZM122.791 23.8576C122.31 19.6346 118.693 19.1879 115.668 19.1879H111.516C108.491 19.1879 104.874 19.6376 104.393 23.8576H122.791Z" fill="#353535"/>
<path d="M149.813 34.5192C153.427 34.5192 158.169 34.5192 161.81 34.5192L164.863 40.5111H147.054C139.662 40.5111 136.127 35.7342 136.127 29.9269V23.7772C136.127 17.9699 139.662 13.193 147.054 13.193H164.863L161.81 19.1849H149.813C146.574 19.1849 142.636 19.6852 142.636 24.8582V28.8429C142.636 34.0159 146.574 34.5162 149.813 34.5162V34.5192Z" fill="#353535"/>
<path d="M194.345 40.5111V24.7301C194.345 19.715 190.945 18.9228 187.863 18.8454L178.141 18.8186V40.5111H171.635V1.98043L178.141 0V13.196H190.084C197.367 13.2496 200.824 17.9996 200.824 23.7533V40.5111H194.345Z" fill="#353535"/>
<path d="M237.586 13.0917L220.817 37.6521L237.979 62.2363H250L233.002 37.664L250 13.0917H237.586Z" fill="url(#paint0_linear_364_135)"/>
<path d="M219.388 39.6266L203.701 62.2363H216.278L225.607 48.549L219.388 39.6266Z" fill="url(#paint1_linear_364_135)"/>
<g style="mix-blend-mode:overlay" opacity="0.4">
<path d="M237.586 13.0917L220.817 37.6521L250 13.0917H237.586Z" fill="#1C1C1C"/>
</g>
<path d="M219.388 35.7015L203.701 13.0917H216.278L225.607 26.7791L219.388 35.7015Z" fill="#353535"/>
<path d="M126.182 46.2557L137.762 58.7696V45.8119H140.043V60.622C140.055 61.5125 139.436 62.251 138.653 62.2391C138.297 62.2391 137.928 62.0753 137.62 61.7835L126.04 49.2814V62.2391H123.758V47.429C123.734 46.5386 124.365 45.8 125.136 45.8119C125.505 45.8119 125.873 45.9757 126.182 46.2557Z" fill="#353535"/>
<path d="M143.343 62.2363V45.8091H157.942L156.885 47.8938H145.625V60.1487H157.477V62.2333H143.34L143.343 62.2363ZM156.054 55.065H144.274L145.332 52.9804H156.054V55.065Z" fill="#353535"/>
<path d="M165.848 60.8187L160.629 45.8091H163.113L167.262 58.2635L170.674 46.7115C170.852 46.092 171.091 45.8091 171.529 45.8091C171.967 45.8091 172.194 46.0891 172.372 46.7115L175.796 58.2635L179.945 45.8091H182.417L177.21 60.8187C176.866 61.7687 176.663 62.2363 175.938 62.2363C175.047 62.2363 174.856 61.5692 174.593 60.7949L171.526 50.7528L168.459 60.7949C168.196 61.5692 167.993 62.2363 167.114 62.2363C166.389 62.2363 166.174 61.7687 165.842 60.8187H165.848Z" fill="#353535"/>
<path d="M195.629 55.068H189.41C186.711 55.068 184.726 53.579 184.726 50.3448C184.726 47.1105 186.877 45.8091 189.41 45.8091H200.664L199.594 47.9057C199.141 47.8819 190.815 47.9057 190.422 47.9057C188.307 47.9057 187.068 48.4566 187.068 50.306C187.068 51.7236 187.696 52.9417 189.718 52.9774H196.128C198.826 52.9774 200.824 54.4664 200.824 57.7007C200.824 60.9349 198.672 62.2363 196.128 62.2363H184.965L186.034 60.1397C186.488 60.1635 194.333 60.1397 194.738 60.1397C196.427 60.1397 198.53 60.3273 198.53 57.6083C198.53 55.3807 196.805 55.0889 195.629 55.065V55.068Z" fill="#353535"/>
<path d="M28.2371 11.0249C30.2582 11.0249 31.8967 9.41023 31.8967 7.41843C31.8967 5.42663 30.2582 3.81195 28.2371 3.81195C26.216 3.81195 24.5775 5.42663 24.5775 7.41843C24.5775 9.41023 26.216 11.0249 28.2371 11.0249Z" fill="url(#paint2_linear_364_135)"/>
</g>
<defs>
<linearGradient id="paint0_linear_364_135" x1="220.817" y1="37.664" x2="250" y2="37.664" gradientUnits="userSpaceOnUse">
<stop stop-color="#FFA800"/>
<stop offset="1" stop-color="#FFCD00"/>
</linearGradient>
<linearGradient id="paint1_linear_364_135" x1="224" y1="48" x2="203" y2="59.5" gradientUnits="userSpaceOnUse">
<stop stop-color="#FFA800"/>
<stop offset="1" stop-color="#FFCD00"/>
</linearGradient>
<linearGradient id="paint2_linear_364_135" x1="25" y1="9.99998" x2="31" y2="3.99998" gradientUnits="userSpaceOnUse">
<stop stop-color="#FFA800"/>
<stop offset="1" stop-color="#FFCD00"/>
</linearGradient>
<clipPath id="clip0_364_135">
<rect width="250" height="62.2363" fill="white"/>
</clipPath>
</defs>
</svg>
