<svg width="22" height="18" viewBox="0 0 22 18" fill="none" xmlns="http://www.w3.org/2000/svg">
<path d="M21.1618 2.65597C20.3984 2.99367 19.5888 3.21545 18.7598 3.31397C19.6336 2.79141 20.2875 1.96899 20.5998 0.999972C19.7798 1.48797 18.8808 1.82997 17.9438 2.01497C17.3144 1.34155 16.4802 0.894936 15.5708 0.744557C14.6614 0.594179 13.7277 0.748463 12.9151 1.18343C12.1024 1.61839 11.4562 2.30966 11.0769 3.14977C10.6977 3.98987 10.6066 4.93175 10.8178 5.82897C9.15492 5.74563 7.52814 5.3135 6.0431 4.56064C4.55805 3.80778 3.24794 2.75102 2.19781 1.45897C1.8261 2.09742 1.63076 2.8232 1.63181 3.56197C1.63181 5.01197 2.36981 6.29297 3.49181 7.04297C2.82782 7.02207 2.17844 6.84275 1.59781 6.51997V6.57197C1.59801 7.53767 1.93218 8.47359 2.54366 9.22103C3.15514 9.96848 4.00629 10.4814 4.95281 10.673C4.33642 10.84 3.69012 10.8646 3.06281 10.745C3.32968 11.5762 3.84982 12.3032 4.5504 12.8241C5.25099 13.345 6.09694 13.6338 6.96981 13.65C6.10229 14.3313 5.10899 14.835 4.04669 15.1321C2.98439 15.4293 1.87394 15.5142 0.778809 15.382C2.69051 16.6114 4.91591 17.2641 7.18881 17.262C14.8818 17.262 19.0888 10.889 19.0888 5.36197C19.0888 5.18197 19.0838 4.99997 19.0758 4.82197C19.8947 4.23014 20.6014 3.49699 21.1628 2.65697L21.1618 2.65597Z" fill="white"/>
</svg>
