<svg width="16" height="10" viewBox="0 0 16 10" fill="none" xmlns="http://www.w3.org/2000/svg">
<path d="M4.96199 0.56665C5.38799 0.56665 5.78199 0.599984 6.14199 0.69865C6.46867 0.75868 6.78049 0.881871 7.05999 1.06132C7.32266 1.22598 7.51932 1.45732 7.64999 1.75398C7.78132 2.05065 7.84666 2.41398 7.84666 2.80932C7.84666 3.27132 7.74866 3.66665 7.51932 3.96332C7.32266 4.26065 6.99466 4.52398 6.60132 4.72198C7.15866 4.88732 7.58466 5.18398 7.84666 5.57932C8.10932 5.97532 8.27332 6.46998 8.27332 7.03065C8.27332 7.49265 8.17466 7.88798 8.01066 8.21798C7.84666 8.54798 7.58466 8.84465 7.28932 9.04265C6.96852 9.25489 6.61388 9.4109 6.24066 9.50398C5.84732 9.60332 5.45399 9.66932 5.06066 9.66932H0.666656V0.56665H4.96199ZM4.69932 4.25998C5.05999 4.25998 5.35532 4.16132 5.58466 3.99665C5.81399 3.83198 5.91266 3.53465 5.91266 3.17198C5.91266 2.97398 5.87932 2.77598 5.81399 2.64465C5.74866 2.51265 5.64999 2.41332 5.51932 2.31465C5.38799 2.24865 5.25666 2.18265 5.09266 2.14998C4.92866 2.11665 4.76532 2.11665 4.56799 2.11665H2.66666V4.26065H4.69999L4.69932 4.25998ZM4.79799 8.15198C4.99466 8.15198 5.19132 8.11865 5.35532 8.08598C5.52091 8.0545 5.67751 7.98689 5.81399 7.88798C5.94758 7.79147 6.05934 7.6679 6.14199 7.52532C6.20732 7.36065 6.27332 7.16265 6.27332 6.93198C6.27332 6.46998 6.14199 6.13998 5.87999 5.90932C5.61732 5.71132 5.25666 5.61265 4.83066 5.61265H2.66666V8.15265H4.79799V8.15198ZM11.126 8.11865C11.388 8.38265 11.7813 8.51465 12.306 8.51465C12.6667 8.51465 12.9947 8.41598 13.2567 8.25132C13.5193 8.05332 13.6833 7.85532 13.7487 7.65732H15.3553C15.0927 8.44865 14.6993 9.00932 14.1753 9.37198C13.65 9.70198 13.0273 9.89998 12.2733 9.89998C11.7909 9.90144 11.3125 9.81188 10.8633 9.63598C10.4591 9.48435 10.0987 9.23519 9.81399 8.91065C9.50952 8.60703 9.28446 8.23315 9.15866 7.82198C8.99466 7.39332 8.92866 6.93198 8.92866 6.40398C8.92866 5.90932 8.99466 5.44798 9.15866 5.01865C9.31634 4.60538 9.54965 4.22511 9.84666 3.89732C10.142 3.60065 10.5027 3.33732 10.896 3.17198C11.3338 2.99603 11.8015 2.90638 12.2733 2.90798C12.8307 2.90798 13.3227 3.00732 13.7487 3.23798C14.1753 3.46865 14.5027 3.73265 14.7653 4.12865C15.0333 4.509 15.2329 4.93312 15.3553 5.38198C15.4207 5.84332 15.4533 6.30532 15.4207 6.83265H10.6667C10.6667 7.36065 10.8633 7.85532 11.126 8.11932V8.11865ZM13.1913 4.65598C12.962 4.42532 12.6013 4.29332 12.1747 4.29332C11.88 4.29332 11.65 4.35932 11.4533 4.45798C11.2567 4.55732 11.126 4.68932 10.9947 4.82132C10.874 4.94882 10.7941 5.10946 10.7653 5.28265C10.732 5.44798 10.6993 5.57932 10.6993 5.71132H13.65C13.5847 5.21665 13.4207 4.88732 13.1913 4.65598ZM10.306 1.19332H13.978V2.08398H10.3067V1.19332H10.306Z" fill="white"/>
</svg>
