<svg width="14" height="14" viewBox="0 0 14 14" fill="none" xmlns="http://www.w3.org/2000/svg">
<path d="M7.00001 0.333374C8.81134 0.333374 9.03734 0.340041 9.74801 0.373374C10.458 0.406707 10.9413 0.518041 11.3667 0.683374C11.8067 0.852707 12.1773 1.08204 12.548 1.45204C12.887 1.7853 13.1493 2.18843 13.3167 2.63337C13.4813 3.05804 13.5933 3.54204 13.6267 4.25204C13.658 4.96271 13.6667 5.18871 13.6667 7.00004C13.6667 8.81137 13.66 9.03737 13.6267 9.74804C13.5933 10.458 13.4813 10.9414 13.3167 11.3667C13.1498 11.8119 12.8874 12.2151 12.548 12.548C12.2147 12.8869 11.8115 13.1492 11.3667 13.3167C10.942 13.4814 10.458 13.5934 9.74801 13.6267C9.03734 13.658 8.81134 13.6667 7.00001 13.6667C5.18868 13.6667 4.96268 13.66 4.25201 13.6267C3.54201 13.5934 3.05868 13.4814 2.63334 13.3167C2.18823 13.1497 1.78503 12.8873 1.45201 12.548C1.11295 12.2148 0.850631 11.8117 0.683344 11.3667C0.51801 10.942 0.406677 10.458 0.373343 9.74804C0.34201 9.03737 0.333344 8.81137 0.333344 7.00004C0.333344 5.18871 0.34001 4.96271 0.373343 4.25204C0.406677 3.54137 0.51801 3.05871 0.683344 2.63337C0.850168 2.18816 1.11255 1.78492 1.45201 1.45204C1.78512 1.11286 2.1883 0.850527 2.63334 0.683374C3.05868 0.518041 3.54134 0.406707 4.25201 0.373374C4.96268 0.342041 5.18868 0.333374 7.00001 0.333374ZM7.00001 3.66671C6.11596 3.66671 5.26811 4.0179 4.64299 4.64302C4.01787 5.26814 3.66668 6.11599 3.66668 7.00004C3.66668 7.8841 4.01787 8.73194 4.64299 9.35706C5.26811 9.98218 6.11596 10.3334 7.00001 10.3334C7.88407 10.3334 8.73191 9.98218 9.35703 9.35706C9.98215 8.73194 10.3333 7.8841 10.3333 7.00004C10.3333 6.11599 9.98215 5.26814 9.35703 4.64302C8.73191 4.0179 7.88407 3.66671 7.00001 3.66671ZM11.3333 3.50004C11.3333 3.27903 11.2455 3.06707 11.0893 2.91079C10.933 2.7545 10.721 2.66671 10.5 2.66671C10.279 2.66671 10.067 2.7545 9.91075 2.91079C9.75447 3.06707 9.66668 3.27903 9.66668 3.50004C9.66668 3.72105 9.75447 3.93302 9.91075 4.0893C10.067 4.24558 10.279 4.33337 10.5 4.33337C10.721 4.33337 10.933 4.24558 11.0893 4.0893C11.2455 3.93302 11.3333 3.72105 11.3333 3.50004ZM7.00001 5.00004C7.53044 5.00004 8.03915 5.21075 8.41422 5.58583C8.7893 5.9609 9.00001 6.46961 9.00001 7.00004C9.00001 7.53047 8.7893 8.03918 8.41422 8.41426C8.03915 8.78933 7.53044 9.00004 7.00001 9.00004C6.46958 9.00004 5.96087 8.78933 5.5858 8.41426C5.21072 8.03918 5.00001 7.53047 5.00001 7.00004C5.00001 6.46961 5.21072 5.9609 5.5858 5.58583C5.96087 5.21075 6.46958 5.00004 7.00001 5.00004Z" fill="white"/>
</svg>
