<svg width="14" height="14" viewBox="0 0 14 14" fill="none" xmlns="http://www.w3.org/2000/svg">
<path d="M12.326 6.71471C12.2714 5.66532 11.9064 4.65578 11.2773 3.81404C11.0857 4.02046 10.8808 4.2142 10.664 4.39404C9.99796 4.94727 9.25367 5.39883 8.45534 5.73404C8.56668 5.96737 8.66868 6.19337 8.75868 6.40671V6.40871C8.78407 6.46832 8.80852 6.52832 8.83201 6.58871C9.84134 6.47537 10.9053 6.51671 11.9367 6.65604C12.074 6.67471 12.2033 6.69471 12.326 6.71471ZM6.06934 1.74804C6.71903 2.66349 7.31815 3.6138 7.86401 4.59471C8.67934 4.27337 9.35334 3.86804 9.89601 3.41671C10.0844 3.26146 10.2617 3.09328 10.4267 2.91337C9.46733 2.10652 8.25355 1.66493 7.00001 1.66671C6.68803 1.66649 6.37663 1.69349 6.06934 1.74737V1.74804ZM1.83534 5.66471C2.28949 5.65325 2.74311 5.6259 3.19534 5.58271C4.28844 5.48494 5.37219 5.30171 6.43668 5.03471C5.88035 4.06818 5.27971 3.12785 4.63668 2.21671C3.94982 2.55697 3.34418 3.04098 2.86084 3.6359C2.3775 4.23082 2.02776 4.92273 1.83534 5.66471ZM2.85534 10.3567C3.11401 9.97871 3.45401 9.55337 3.90534 9.09071C4.87468 8.09737 6.01868 7.32404 7.34268 6.89737L7.38401 6.88537C7.27401 6.64271 7.17068 6.42604 7.06668 6.22204C5.84268 6.57871 4.55334 6.80137 3.26868 6.91671C2.64201 6.97337 2.08001 6.99804 1.66668 7.00204C1.6655 8.22377 2.08554 9.40855 2.85601 10.3567H2.85534ZM9.00334 11.9434C8.74626 10.6469 8.38235 9.37387 7.91534 8.13737C6.58068 8.62204 5.51734 9.33071 4.69534 10.176C4.36361 10.511 4.06922 10.8809 3.81734 11.2794C4.73655 11.9652 5.85313 12.335 7.00001 12.3334C7.68662 12.3344 8.36692 12.2024 9.00334 11.9447V11.9434ZM10.252 11.2267C11.2929 10.4265 12.0019 9.27051 12.2433 7.98004C12.0167 7.92337 11.7293 7.86671 11.4133 7.82271C10.7108 7.72154 9.99787 7.71414 9.29334 7.80071C9.69005 8.91993 10.0103 10.0648 10.252 11.2274V11.2267ZM7.00001 13.6667C3.31801 13.6667 0.333344 10.682 0.333344 7.00004C0.333344 3.31804 3.31801 0.333374 7.00001 0.333374C10.682 0.333374 13.6667 3.31804 13.6667 7.00004C13.6667 10.682 10.682 13.6667 7.00001 13.6667Z" fill="white"/>
</svg>
