<svg width="14" height="12" viewBox="0 0 14 12" fill="none" xmlns="http://www.w3.org/2000/svg">
<path d="M13.362 2.33196C13.6667 3.51996 13.6667 5.99996 13.6667 5.99996C13.6667 5.99996 13.6667 8.47996 13.362 9.66796C13.1927 10.3246 12.6973 10.8413 12.07 11.016C10.9307 11.3333 7.00001 11.3333 7.00001 11.3333C7.00001 11.3333 3.07134 11.3333 1.93001 11.016C1.30001 10.8386 0.805344 10.3226 0.63801 9.66796C0.333344 8.47996 0.333344 5.99996 0.333344 5.99996C0.333344 5.99996 0.333344 3.51996 0.63801 2.33196C0.807344 1.67529 1.30268 1.15863 1.93001 0.983959C3.07134 0.666626 7.00001 0.666626 7.00001 0.666626C7.00001 0.666626 10.9307 0.666626 12.07 0.983959C12.7 1.16129 13.1947 1.67729 13.362 2.33196ZM5.66668 8.33329L9.66668 5.99996L5.66668 3.66663V8.33329Z" fill="white"/>
</svg>
